<?xml version="1.0" encoding="UTF-8"?>
<svg id="Layer_1" data-name="Layer 1" xmlns="http://www.w3.org/2000/svg" viewBox="0 0 162.92 18.88">
  <defs>
    <style>
      .cls-1 {
        fill: #3f4f8a;
      }
    </style>
  </defs>
  <g>
    <path d="M2.28,1.2h14.33v2.85H5.53v4.19h9.41v2.68H5.53v6.31h-3.25V1.2Z"/>
    <path d="M18.8,13.41c0-.58.13-1.11.38-1.59s.63-.89,1.14-1.24c.51-.34,1.14-.61,1.89-.8.75-.19,1.64-.28,2.64-.28.75,0,1.53.05,2.35.16s1.67.28,2.55.5c-.03-.38-.15-.74-.35-1.06-.2-.32-.47-.6-.83-.84-.35-.24-.78-.42-1.27-.55s-1.06-.19-1.69-.19c-.34,0-.72.02-1.13.06s-.83.1-1.27.18-.87.18-1.3.31c-.43.12-.83.27-1.19.44l-.92-2.49c.46-.16.95-.31,1.47-.45.52-.14,1.06-.25,1.6-.35s1.09-.18,1.64-.23,1.08-.08,1.59-.08c2.26,0,3.94.58,5.04,1.73s1.65,2.93,1.65,5.31v5.27h-3.04v-1.14c-.31.18-.66.36-1.03.52s-.78.31-1.21.43-.91.22-1.41.29c-.5.07-1.03.11-1.59.11-.94,0-1.77-.1-2.49-.31s-1.31-.49-1.79-.85-.84-.79-1.08-1.28-.36-1.02-.36-1.59ZM21.99,13.31c0,.2.05.39.15.57s.27.34.49.48c.23.14.51.25.87.34s.78.13,1.28.13c.53,0,1.05-.05,1.55-.14s.96-.22,1.39-.38.82-.34,1.17-.54.64-.42.87-.64v-.53c-.46-.13-.92-.24-1.38-.33s-.89-.16-1.3-.21c-.41-.05-.8-.09-1.17-.11-.37-.02-.69-.03-.96-.03-.57,0-1.04.04-1.42.11s-.68.18-.91.3c-.23.13-.4.28-.49.45s-.14.35-.14.53Z"/>
    <path d="M37.29,13.52c.82.49,1.72.85,2.71,1.09s1.99.35,3.02.35c.7,0,1.28-.05,1.74-.14s.84-.22,1.12-.37.48-.32.59-.51.17-.39.17-.58c0-.29-.12-.53-.37-.74s-.66-.31-1.24-.31c-.27,0-.55.02-.86.05s-.63.07-.97.11c-.34.04-.69.07-1.06.11s-.74.05-1.11.05c-.82,0-1.52-.09-2.1-.27-.58-.18-1.05-.42-1.41-.73s-.63-.67-.79-1.09c-.16-.42-.25-.87-.25-1.36,0-.62.14-1.18.43-1.7s.7-.97,1.23-1.35c.53-.38,1.18-.67,1.93-.89.75-.21,1.6-.32,2.53-.32.49,0,.99.03,1.52.09s1.05.13,1.56.23,1,.21,1.48.33c.47.13.89.26,1.25.41l-.95,2.36c-.77-.29-1.54-.51-2.31-.68-.77-.17-1.56-.25-2.37-.25-.57,0-1.05.04-1.44.13s-.71.2-.96.34c-.25.14-.43.3-.54.48-.11.18-.17.37-.17.57,0,.14.03.27.09.39s.15.22.29.3c.13.09.31.15.52.2.21.04.48.07.79.07.29,0,.59-.02.91-.05s.66-.07,1-.11c.35-.04.71-.07,1.08-.11.37-.03.75-.05,1.14-.05.72,0,1.36.09,1.9.26.54.17.99.41,1.35.72s.62.67.8,1.09.27.87.27,1.36c0,.64-.15,1.23-.44,1.77s-.73,1.02-1.31,1.42c-.58.4-1.3.71-2.17.94-.87.23-1.86.34-3,.34-.7,0-1.37-.04-2.02-.13s-1.27-.2-1.86-.35c-.59-.15-1.14-.32-1.66-.52-.52-.2-.99-.41-1.41-.64l1.31-2.3Z"/>
    <path d="M52.57.23h3.04v5.82c.64-.35,1.34-.63,2.13-.83s1.6-.31,2.47-.31c1,0,1.9.15,2.69.44.79.29,1.47.72,2.02,1.27.55.55.98,1.22,1.28,2s.45,1.67.45,2.66v5.95h-3.02v-5.82c0-.57-.09-1.1-.28-1.57-.19-.47-.46-.88-.81-1.23s-.79-.61-1.3-.79-1.09-.28-1.73-.28c-.77,0-1.49.12-2.15.37s-1.24.56-1.74.93v8.4h-3.04V.23Z"/>
    <path d="M71.63,3.48c-.3,0-.57-.04-.81-.13-.24-.08-.45-.2-.62-.35-.17-.15-.3-.32-.39-.51-.09-.19-.14-.4-.14-.62s.05-.44.14-.63c.09-.19.22-.36.39-.51s.38-.26.62-.34c.24-.09.51-.13.81-.13s.58.04.83.13c.24.09.45.2.62.34s.3.31.39.51c.09.2.14.41.14.63s-.05.43-.14.62c-.09.2-.22.37-.39.51-.17.15-.38.26-.62.35-.24.09-.52.13-.83.13ZM70.12,5.13h3.04v12.1h-3.04V5.13Z"/>
    <path d="M76.31,11.18c0-.87.18-1.68.53-2.44.35-.76.85-1.42,1.51-1.99.65-.57,1.44-1.02,2.37-1.34.93-.33,1.97-.49,3.12-.49s2.2.16,3.12.49c.93.33,1.72.78,2.37,1.34.65.57,1.16,1.23,1.51,1.99.35.76.53,1.57.53,2.44s-.18,1.68-.53,2.44c-.35.76-.85,1.42-1.51,1.99-.65.57-1.44,1.02-2.37,1.34-.93.33-1.97.49-3.12.49s-2.2-.16-3.12-.49c-.93-.33-1.72-.78-2.37-1.34-.65-.57-1.16-1.23-1.51-1.99-.35-.76-.53-1.57-.53-2.44ZM79.5,11.18c0,.49.1.95.29,1.38.19.43.48.82.85,1.15.37.33.83.59,1.36.79.54.19,1.15.29,1.83.29s1.29-.1,1.83-.29c.54-.2.99-.46,1.36-.79.37-.33.66-.71.85-1.15.2-.43.29-.89.29-1.38s-.1-.95-.29-1.38c-.19-.44-.48-.82-.85-1.15-.37-.33-.83-.59-1.36-.79-.54-.2-1.15-.29-1.83-.29s-1.29.1-1.83.29c-.54.19-.99.46-1.36.79-.37.33-.66.72-.85,1.15-.2.44-.29.9-.29,1.38Z"/>
    <path d="M94.43,5.13h3.04v1.03c.81-.46,1.58-.78,2.31-.96.74-.18,1.45-.28,2.16-.28.92,0,1.78.14,2.56.4.79.27,1.47.67,2.04,1.21s1.02,1.2,1.35,1.99c.32.8.49,1.72.49,2.76v5.95h-3.02v-5.46c0-.66-.09-1.26-.28-1.78-.19-.52-.46-.96-.81-1.32-.35-.36-.78-.63-1.28-.82-.5-.19-1.06-.28-1.69-.28-.33,0-.67.03-1.01.1-.35.07-.68.17-1.02.29-.33.13-.65.28-.96.47-.31.19-.59.4-.84.64v8.15h-3.04V5.13Z"/>
  </g>
  <path class="cls-1" d="M125.75,17.23h-3.25v-4.56h-4.92s-.09.01-.09.01l-3.02,4.55h-3.98l3.49-5.13c-.61-.23-1.14-.52-1.59-.88-.45-.35-.83-.75-1.12-1.2-.3-.45-.52-.94-.66-1.48-.14-.54-.21-1.1-.21-1.7,0-.88.14-1.67.44-2.37s.73-1.29,1.33-1.77c.59-.49,1.34-.86,2.25-1.11.9-.26,1.97-.38,3.2-.38h8.15v16.03ZM122.5,9.86v-5.82h-4.98c-1.24,0-2.16.24-2.78.73-.62.49-.92,1.18-.92,2.08,0,.46.08.87.23,1.25.15.37.39.69.7.95.31.26.7.46,1.16.6.46.14,1,.22,1.61.22h4.98Z"/>
  <g>
    <path d="M129.21,1.2h3.25v8.83c0,.72.1,1.37.3,1.93.2.56.49,1.04.89,1.43.39.39.88.69,1.46.89.58.2,1.26.3,2.03.3s1.44-.1,2.03-.3c.58-.2,1.07-.5,1.47-.89.39-.39.69-.87.89-1.43.2-.56.3-1.21.3-1.93V1.2h3.25v9.22c0,1.05-.18,2.01-.53,2.87s-.87,1.6-1.55,2.21-1.51,1.09-2.49,1.43c-.98.33-2.1.5-3.36.5s-2.38-.17-3.36-.5c-.98-.33-1.81-.81-2.49-1.43s-1.19-1.35-1.55-2.21-.53-1.82-.53-2.87V1.2Z"/>
    <path d="M149.13,13.52c.82.49,1.72.85,2.71,1.09s1.99.35,3.03.35c.7,0,1.28-.05,1.74-.14s.84-.22,1.12-.37.48-.32.59-.51.17-.39.17-.58c0-.29-.12-.53-.38-.74-.25-.21-.66-.31-1.24-.31-.27,0-.55.02-.86.05s-.63.07-.97.11c-.34.04-.69.07-1.06.11-.37.03-.74.05-1.11.05-.82,0-1.52-.09-2.1-.27-.58-.18-1.05-.42-1.41-.73s-.62-.67-.79-1.09c-.16-.42-.25-.87-.25-1.36,0-.62.14-1.18.43-1.7s.7-.97,1.23-1.35c.53-.38,1.18-.67,1.93-.89.75-.21,1.6-.32,2.53-.32.49,0,.99.03,1.52.09.53.06,1.05.13,1.56.23s1,.21,1.48.33c.47.13.89.26,1.25.41l-.95,2.36c-.77-.29-1.54-.51-2.31-.68-.77-.17-1.56-.25-2.37-.25-.57,0-1.05.04-1.44.13-.39.09-.71.2-.96.34-.25.14-.43.3-.54.48-.11.18-.17.37-.17.57,0,.14.03.27.09.39.06.12.15.22.29.3.13.09.31.15.52.2.21.04.48.07.79.07.29,0,.59-.02.91-.05s.66-.07,1-.11c.35-.04.71-.07,1.08-.11.37-.03.75-.05,1.14-.05.72,0,1.36.09,1.9.26.54.17.99.41,1.35.72s.62.67.8,1.09.27.87.27,1.36c0,.64-.15,1.23-.44,1.77s-.73,1.02-1.31,1.42c-.58.4-1.3.71-2.17.94-.87.23-1.86.34-3,.34-.7,0-1.37-.04-2.02-.13s-1.27-.2-1.86-.35c-.59-.15-1.14-.32-1.66-.52-.52-.2-.99-.41-1.41-.64l1.31-2.3Z"/>
  </g>
</svg>